PathFileType	4	(X/Y/Z)	/home/abdul/Desktop/myosuite/custom_workspace/IK/output/S19_12_3.trc
DataRate	CameraRate	NumFrames	NumMarkers	Units	OrigDataRate	OrigDataStartFrame	OrigNumFrames
200.0	200.0	39	3	mm	200.0	1113	1483
Frame#	Time	V_Shoulder			V_Elbow			V_Wrist		
		X1	Y1	Z1	X2	Y2	Z2	X3	Y3	Z3

1113	5.56	-100.05537340261061	648.7342022375586	314.54254699582856				-75.46817623256426	199.73425104316567	47.158062930118334
1114	5.565	-100.05219445579019	648.7141977272082	314.5454493376479				-75.54016222314755	199.72072841405893	46.95139965567795
1115	5.57	-100.0495160519414	648.6940003298981	314.54827959666255				-75.61061605600025	199.71409766125532	46.74514479746777
1116	5.575	-100.04733880163651	648.6736138859209	314.5510398696277				-75.67932060577668	199.7148099868532	46.53979673082042
1117	5.58	-100.04566292783933	648.6530446234332	314.5537325857892				-75.74606562997442	199.72332388779614	46.33587125024123
1118	5.585	-100.04448824984149	648.6323012196572	314.55636051684615				-75.81064888878733	199.74010417354407	46.133900457583294
1119	5.59	-100.04381416789364	648.6113948578483	314.55892678655954				-75.87287728484002	199.76562092459238	45.93443155981666
1120	5.595	-100.04363964861669	648.5903392797825	314.561434879957				-75.93256801980016	199.80034839348127	45.73802557823484
1121	5.6	-100.04396321127933	648.5691508335236	314.5638886520828				-75.98954976467053	199.84476385025476	45.545255971371034
1122	5.605	-100.04478291502768	648.5478485162469	314.5662923362383				-76.04366384037137	199.89934637465194	45.35670717432953
1123	5.61	-100.04609634715241	648.5264540118919	314.56865055165997				-76.09476540503478	199.96457559763832	45.17297305767219
1124	5.615	-100.04790061247854	648.5049917234425	314.57096831057885				-76.14272464424715	200.04093039521337	44.99465530943371
1125	5.62	-100.05019232396133	648.483488799631	314.57325102460396				-76.18742796029619	200.1288875377592	44.82236174426994
1126	5.625	-100.05296759457114	648.4619751558811	314.57550451037383				-76.2287791563045	200.2289202985202	44.6567045441692
1127	5.63	-100.05622203054803	648.4404834893159	314.5777349944159				-76.26670061096524	200.3414970251289	44.498298435574384
1128	5.635	-100.05995072610438	648.4190492876704	314.579949117157				-76.3011344394362	200.4670796784094	44.34775880817161
1129	5.64	-100.06414825965264	648.3977108319608	314.58215393602535				-76.33204363580062	200.6061223430014	44.20569978099677
1130	5.645	-100.06880869163138	648.3765091927797	314.58435692758417				-76.35941319236477	200.759069714649	44.07273222189164
1131	5.65	-100.07392556400033	648.3554882201016	314.5865659886394				-76.3832511909375	200.92635556928718	43.94946172670481
1132	5.655	-100.07949190147174	648.3346945264956	314.5887894362619				-76.40358986112493	201.10840121933683	43.836486564975786
1133	5.66	-100.08550021454077	648.3141774636647	314.5910360066682				-76.42048660057709	201.30561396287757	43.73439559916187
1134	5.665	-100.0919425043751	648.293989092243	314.593314852901				-76.4340249520432	201.51838553161133	43.64376618476387
1135	5.67	-100.09881026961732	648.2741841448011	314.5956355412547				-76.44431553203013	201.7470905437506	43.5651620589763
1136	5.675	-100.10609451515047	648.2548199820295	314.59800804639275				-76.45149690581638	201.99208496816476	43.49913122572743
1137	5.68	-100.11378576287154	648.2359565420875	314.60044274510284				-76.45573640355099	202.25370460629387	43.4462038451838
1138	5.685	-100.12187406451135	648.217656283122	314.6029504086411				-76.45723087216754	202.53226359848702	43.4068901359685
1139	5.69	-100.13034901653477	648.1999841189831	314.60554219361666				-76.45620735786619	202.82805296154248	43.381678298482335
1140	5.695	-100.13919977714845	648.1830073481798	314.60822963137184				-76.45292371396471	203.14133916431643	43.371032467819404
1141	5.7	-100.14841508543621	648.1667955761387	314.61102461581567				-76.44766912899256	203.4723627483231	43.375390704832164
1142	5.705	-100.15798328263715	648.1514206308499	314.6139393896726				-76.44076457000234	203.82133700027453	43.395163033924064
1143	5.71	-100.16789233557307	648.1369564720034	314.6169865291096				-76.43256313620086	204.18844668349317	43.430729536129775
1144	5.715	-100.17812986222553	648.1234790937345	314.6201789267135				-76.42345031815796	204.57384683508346	43.48243850598192
1145	5.72	-100.18868315945546	648.1110664211267	314.6235297727886				-76.41384415803735	204.97766163565996	43.55060468055951
1146	5.725	-100.19953923285011	648.0997982006226	314.62705253495574				-76.40419530650794	205.39998335830518	43.63550754896487
1147	5.73	-100.2106848286749	648.0897558845322	314.63076093603314				-76.3949869722405	205.8408714032634	43.737389750284386
1148	5.735	-100.22210646789934	648.0810225098311	314.6346689301892				-76.38673476016906	206.3003514246717	43.856455567852294
1149	5.74	-100.23379048225911	648.0736825714667	314.63879067735894				-76.37998639500385	206.77841455538356	43.99286952735709
1150	5.745	-100.24572305230676	648.0678218904083	314.6431405159253				-76.37532132681747	207.27501673565376	44.14675510600785
1151	5.75	-100.25789024739692	648.0635274766901	314.6477329336703				-76.37335021589317	207.79007815112737	44.31819355961292
